<svg width="16" height="16" viewBox="0 0 16 16" fill="none" xmlns="http://www.w3.org/2000/svg">
<path fill-rule="evenodd" clip-rule="evenodd" d="M8 13C8 14.2573 8.77348 15.334 9.87055 15.7801C9.27049 15.9239 8.64413 16 8 16C3.58172 16 0 12.4183 0 8V6H4V8C4 10.2091 5.79086 12 8 12V13Z" fill="white"/>
<path d="M8 0C12.4183 0 16 3.58172 16 8C16 8.6906 15.9125 9.36076 15.748 10H11.4649C11.8052 9.41165 12 8.72857 12 8C12 5.79086 10.2091 4 8 4H0V0H8Z" fill="white"/>
<path d="M14 11H15V15H14V11Z" fill="white"/>
<path d="M9 11H10V13C10 13.5523 10.4477 14 11 14C11.5523 14 12 13.5523 12 13V11H13V13C13 14.1046 12.1046 15 11 15C9.89543 15 9 14.1046 9 13V11Z" fill="white"/>
</svg>
