<svg width="16" height="16" viewBox="0 0 16 16" fill="none" xmlns="http://www.w3.org/2000/svg">
<path d="M0 8C0 12.4183 3.58172 16 8 16C8.5572 16 9.10109 15.943 9.62618 15.8346C9.23362 15.3274 9 14.691 9 14V11.874C8.68038 11.9562 8.3453 12 8 12C5.79086 12 4 10.2091 4 8V6H0V8Z" fill="white"/>
<path d="M16 8C16 3.58172 12.4183 0 8 0H0V4H8C10.2091 4 12 5.79086 12 8C12 9.19469 11.4762 10.2671 10.6458 11H15.4185C15.7935 10.0736 16 9.0609 16 8Z" fill="white"/>
<path d="M10 12H11V14C11 14.5523 11.4477 15 12 15C12.5523 15 13 14.5523 13 14V12H14V14C14 15.1046 13.1046 16 12 16C10.8954 16 10 15.1046 10 14V12Z" fill="white"/>
<path d="M15 12H16V16H15V12Z" fill="white"/>
</svg>
